<svg xmlns="http://www.w3.org/2000/svg" width="200" height="200" viewBox="0 0 200 200">
  <circle cx="100" cy="80" r="50" fill="#E2E8F0" />
  <ellipse cx="100" cy="170" rx="50" ry="25" fill="#E2E8F0" />
  <path d="M100 130 Q 60 130 60 170 H 140 Q 140 130 100 130" fill="#90E0EF" />
  <path d="M100 100 Q 70 100 70 70 Q 70 40 100 40 Q 130 40 130 70 Q 130 100 100 100" fill="#E2E8F0" />
  <path d="M70 65 C 80 60 120 60 130 65" fill="none" stroke="#000000" stroke-width="2" />
  <ellipse cx="85" cy="60" rx="5" ry="8" fill="#000000" />
  <ellipse cx="115" cy="60" rx="5" ry="8" fill="#000000" />
  <path d="M85 75 Q 100 85 115 75" fill="none" stroke="#000000" stroke-width="2" />
  <path d="M70 30 Q 85 25 100 30 Q 115 25 130 30" fill="none" stroke="#000000" stroke-width="1" />
  <path d="M70 30 C 60 40 60 50 75 55" fill="none" stroke="#000000" stroke-width="1" />
  <path d="M130 30 C 140 40 140 50 125 55" fill="none" stroke="#000000" stroke-width="1" />
  <path d="M90 118 L 110 118 L 110 123 L 90 123 Z" fill="#FFFFFF" stroke="#000000" stroke-width="1" />
  <path d="M95 123 L 105 123 L 105 128 L 95 128 Z" fill="#FFFFFF" stroke="#000000" stroke-width="1" />
  <circle cx="80" cy="120" r="3" fill="#22C55E" />
  <circle cx="120" cy="120" r="3" fill="#22C55E" />
</svg>