<svg xmlns="http://www.w3.org/2000/svg" width="200" height="200" viewBox="0 0 200 200">
  <circle cx="100" cy="80" r="50" fill="#FCD5CE" />
  <ellipse cx="100" cy="170" rx="50" ry="25" fill="#FCD5CE" />
  <path d="M100 130 Q 60 130 60 170 H 140 Q 140 130 100 130" fill="#F8EDEB" />
  <path d="M100 100 Q 70 100 70 70 Q 70 40 100 40 Q 130 40 130 70 Q 130 100 100 100" fill="#FCD5CE" />
  <path d="M70 75 C 80 85 120 85 130 75" fill="none" stroke="#000000" stroke-width="2" />
  <ellipse cx="85" cy="65" rx="5" ry="8" fill="#000000" />
  <ellipse cx="115" cy="65" rx="5" ry="8" fill="#000000" />
  <path d="M80 90 Q 100 100 120 90" fill="none" stroke="#000000" stroke-width="2" />
  <path d="M100 30 Q 80 30 60 50 Q 50 60 50 70 Q 50 80 60 90" fill="none" stroke="#000000" stroke-width="1" />
  <path d="M60 90 Q 70 100 80 95" fill="none" stroke="#000000" stroke-width="1" />
  <path d="M100 30 Q 120 30 140 50 Q 150 60 150 70 Q 150 80 140 90" fill="none" stroke="#000000" stroke-width="1" />
  <path d="M140 90 Q 130 100 120 95" fill="none" stroke="#000000" stroke-width="1" />
</svg>