<svg xmlns="http://www.w3.org/2000/svg" width="200" height="200" viewBox="0 0 200 200">
  <circle cx="100" cy="80" r="50" fill="#D8B4A0" />
  <ellipse cx="100" cy="170" rx="50" ry="25" fill="#D8B4A0" />
  <path d="M100 130 Q 60 130 60 170 H 140 Q 140 130 100 130" fill="#4A4E69" />
  <path d="M100 100 Q 70 100 70 70 Q 70 40 100 40 Q 130 40 130 70 Q 130 100 100 100" fill="#D8B4A0" />
  <path d="M70 65 C 80 60 120 60 130 65" fill="none" stroke="#000000" stroke-width="2" />
  <ellipse cx="85" cy="60" rx="5" ry="8" fill="#000000" />
  <ellipse cx="115" cy="60" rx="5" ry="8" fill="#000000" />
  <path d="M85 85 Q 100 95 115 85" fill="none" stroke="#000000" stroke-width="2" />
  <path d="M60 65 Q 50 45 70 35" fill="none" stroke="#000000" stroke-width="1" />
  <path d="M140 65 Q 150 45 130 35" fill="none" stroke="#000000" stroke-width="1" />
  <path d="M100 30 C 80 30 65 40 65 50 C 65 60 65 65 65 65" fill="none" stroke="#000000" stroke-width="1" />
  <path d="M100 30 C 120 30 135 40 135 50 C 135 60 135 65 135 65" fill="none" stroke="#000000" stroke-width="1" />
  <path d="M85 85 C 90 95 110 95 115 85" fill="#000000" />
</svg>